<?xml version="1.0" encoding="utf-8"?>
<!-- Generator: Adobe Illustrator 27.5.0, SVG Export Plug-In . SVG Version: 6.00 Build 0)  -->
<svg version="1.1" xmlns="http://www.w3.org/2000/svg" xmlns:xlink="http://www.w3.org/1999/xlink" x="0px" y="0px"
	 viewBox="0 0 1122 1122" style="enable-background:new 0 0 1122 1122;" xml:space="preserve">
<g id="Bg">
	<rect style="fill:#FFFFFF;" width="1122" height="1122"/>
</g>
<g id="Object">
	<g>
		<path style="fill:none;" d="M542.161,341.946c77.43-1.234,146.061,37.892,186.004,97.904l10.942-6.597
			c-42.274-63.795-115.122-105.488-197.158-104.168c-127.862,2.046-230.232,107.751-228.193,235.637
			c2.052,127.862,107.763,230.239,235.613,228.18c127.874-2.033,230.251-107.738,228.205-235.612
			c-0.605-38.056-10.458-73.823-27.27-105.275l-10.967,6.614c15.651,29.559,24.813,63.13,25.376,98.861
			c1.931,120.974-94.569,220.622-215.544,222.558c-120.969,1.943-220.61-94.57-222.547-215.544
			C324.675,443.523,421.168,343.882,542.161,341.946z"/>
		<path style="fill:#616E7D;" d="M541.949,329.085c82.036-1.319,154.884,40.374,197.158,104.168l11.674-7.063
			c-44.712-67.795-122.003-112.133-209.044-110.741c-135.403,2.161-243.777,114.081-241.616,249.484
			c2.172,135.385,114.075,243.777,249.471,241.616c135.391-2.173,243.789-114.094,241.622-249.478
			c-0.648-40.561-11.208-78.659-29.219-112.12l-11.693,7.063c16.812,31.453,26.665,67.22,27.27,105.275
			c2.046,127.874-100.331,233.579-228.205,235.612c-127.85,2.058-233.561-100.319-235.613-228.18
			C311.717,436.836,414.087,331.131,541.949,329.085z"/>
		<path style="fill:#616E7D;" d="M543.027,396.711c57.234-0.92,108.059,27.579,138.18,71.499l46.958-28.359
			c-39.944-60.012-108.574-99.139-186.004-97.904c-120.993,1.937-217.486,101.578-215.538,222.558
			c1.937,120.975,101.578,217.487,222.547,215.544c120.974-1.937,217.475-101.584,215.544-222.558
			c-0.563-35.731-9.725-69.302-25.376-98.861l-47.109,28.451c10.851,21.485,17.308,45.608,17.72,71.287
			c1.453,90.726-70.911,165.469-161.656,166.922c-90.727,1.452-165.451-70.93-166.922-161.663
			C379.942,472.894,452.306,398.163,543.027,396.711z"/>
		<path style="fill:#FFFFFF;" d="M543.904,451.47c37.038-0.593,70.01,17.321,90.284,45.136l47.018-28.397
			c-30.121-43.92-80.946-72.419-138.18-71.499c-90.72,1.453-163.085,76.184-161.657,166.916
			c1.471,90.733,76.195,163.115,166.922,161.663c90.745-1.453,163.109-76.196,161.656-166.922
			c-0.411-25.679-6.869-49.802-17.72-71.287l-46.976,28.378c6.125,13.357,9.695,28.148,9.944,43.786
			c0.962,60.484-47.285,110.317-107.787,111.279c-60.466,0.975-110.305-47.29-111.267-107.769
			C435.173,502.253,483.432,452.438,543.904,451.47z"/>
		<path style="fill:#616E7D;" d="M544.787,506.235c16.831-0.273,31.986,7.087,42.214,18.864l47.188-28.493
			c-20.274-27.815-53.246-45.729-90.284-45.136c-60.472,0.968-108.732,50.783-107.763,111.285
			c0.962,60.478,50.801,108.744,111.267,107.769c60.503-0.962,108.749-50.794,107.787-111.279
			c-0.249-15.638-3.819-30.43-9.944-43.786l-47.473,28.674c1.628,5.048,2.554,10.41,2.639,15.99
			c0.49,30.242-23.627,55.152-53.887,55.643c-30.23,0.484-55.141-23.651-55.631-53.887
			C490.428,531.624,514.54,506.713,544.787,506.235z"/>
		<path style="fill:#FFFFFF;" d="M552.921,545.682l34.08-20.583c-10.228-11.777-25.382-19.137-42.214-18.864
			c-30.248,0.478-54.359,25.388-53.887,55.643c0.49,30.236,25.401,54.371,55.631,53.887c30.26-0.49,54.378-25.4,53.887-55.643
			c-0.085-5.58-1.011-10.942-2.639-15.99l-34.908,21.08c-4.418,2.669-10.174,1.355-13.03-2.978l-0.521-0.799
			C545.865,556.122,547.481,548.98,552.921,545.682z"/>
		<path style="fill:#AAD4C8;" d="M860.088,422.716c2.185,1.15,4.817,1.072,6.911-0.199l7.214-4.352
			c1.09-0.659,1.743-1.858,1.694-3.128c-0.012-1.277-0.75-2.433-1.876-3.026l-33.377-17.594l3.752-2.257
			c0.793-0.485,1.386-1.284,1.598-2.203c0.224-0.908,0.061-1.888-0.442-2.687l-4.696-7.541c-1.029-1.64-3.183-2.149-4.841-1.156
			l-3.867,2.336l-0.811-37.347c-0.03-1.247-0.72-2.403-1.821-3.008c-1.102-0.605-2.452-0.587-3.529,0.067l-7.172,4.333
			c-2.155,1.295-3.444,3.643-3.396,6.155l0.866,39.387l-1.9,1.168l-0.835-37.348c-0.018-1.259-0.726-2.414-1.828-3.026
			c-1.089-0.593-2.445-0.574-3.541,0.079l-7.172,4.328c-2.16,1.307-3.437,3.649-3.395,6.161l0.878,39.393l-1.924,1.162
			l-0.835-37.348c-0.012-1.265-0.714-2.409-1.822-3.02c-1.083-0.605-2.439-0.593-3.534,0.073l-7.159,4.327
			c-2.155,1.295-3.438,3.65-3.389,6.155l0.75,33.547c0.012,1.252-0.63,2.421-1.683,3.062l-28.124,16.982l-11.674,7.063
			l-10.942,6.597l-46.958,28.359l-47.018,28.397l-47.188,28.493l-34.08,20.583c-5.441,3.298-7.056,10.44-3.601,15.754l0.521,0.799
			c2.856,4.333,8.612,5.646,13.03,2.978l34.908-21.08l47.473-28.674l46.976-28.378l47.109-28.451l10.967-6.614l11.693-7.063
			l28.1-16.97c1.034-0.635,2.342-0.677,3.419-0.103l30.993,16.335c2.173,1.15,4.799,1.077,6.905-0.206l7.214-4.352
			c1.083-0.653,1.731-1.852,1.707-3.123c-0.042-1.277-0.775-2.433-1.882-3.02l-33.389-17.587l1.84-1.107l35.405,18.646
			c2.178,1.156,4.793,1.077,6.905-0.199l7.208-4.352c1.09-0.672,1.743-1.858,1.719-3.141c-0.036-1.265-0.762-2.421-1.888-3.014
			l-33.384-17.582l1.822-1.113L860.088,422.716z"/>
	</g>
</g>
</svg>
